<mxfile host="Electron" agent="Mozilla/5.0 (Windows NT 10.0; Win64; x64) AppleWebKit/537.36 (KHTML, like Gecko) draw.io/24.7.8 Chrome/128.0.6613.36 Electron/32.0.1 Safari/537.36" version="24.7.8" pages="4">
  <diagram id="WJWYRF3JW887FxR_2pt_" name="Components">
    <mxGraphModel dx="1036" dy="1706" grid="1" gridSize="10" guides="1" tooltips="1" connect="1" arrows="1" fold="1" page="1" pageScale="1" pageWidth="850" pageHeight="1100" math="0" shadow="0">
      <root>
        <mxCell id="0" />
        <mxCell id="1" parent="0" />
        <mxCell id="JROARpgO5LGKM70FcoCZ-3" value="" style="rounded=1;whiteSpace=wrap;html=1;" parent="1" vertex="1">
          <mxGeometry x="10" y="80" width="730" height="410" as="geometry" />
        </mxCell>
        <mxCell id="NP-N_gkXr4D6js98mMwR-3" value="Port 27017" style="edgeStyle=orthogonalEdgeStyle;rounded=0;orthogonalLoop=1;jettySize=auto;html=1;exitX=0.5;exitY=1;exitDx=0;exitDy=0;entryX=0.5;entryY=0;entryDx=0;entryDy=0;" parent="1" source="NP-N_gkXr4D6js98mMwR-1" target="NP-N_gkXr4D6js98mMwR-2" edge="1">
          <mxGeometry relative="1" as="geometry" />
        </mxCell>
        <mxCell id="NP-N_gkXr4D6js98mMwR-6" value="Port 9092" style="edgeStyle=orthogonalEdgeStyle;rounded=0;orthogonalLoop=1;jettySize=auto;html=1;exitX=0.75;exitY=1;exitDx=0;exitDy=0;entryX=0.25;entryY=0;entryDx=0;entryDy=0;" parent="1" source="NP-N_gkXr4D6js98mMwR-1" target="NP-N_gkXr4D6js98mMwR-5" edge="1">
          <mxGeometry relative="1" as="geometry" />
        </mxCell>
        <mxCell id="NP-N_gkXr4D6js98mMwR-1" value="Person / Contact Service" style="rounded=0;whiteSpace=wrap;html=1;" parent="1" vertex="1">
          <mxGeometry x="40" y="110" width="200" height="160" as="geometry" />
        </mxCell>
        <mxCell id="NP-N_gkXr4D6js98mMwR-2" value="Mongo DB&amp;nbsp;" style="shape=cylinder;whiteSpace=wrap;html=1;boundedLbl=1;backgroundOutline=1;" parent="1" vertex="1">
          <mxGeometry x="80" y="350" width="120" height="110" as="geometry" />
        </mxCell>
        <mxCell id="NP-N_gkXr4D6js98mMwR-5" value="Kafka / Zookeeper" style="rounded=0;whiteSpace=wrap;html=1;" parent="1" vertex="1">
          <mxGeometry x="240" y="350" width="430" height="110" as="geometry" />
        </mxCell>
        <mxCell id="NP-N_gkXr4D6js98mMwR-8" value="Port 8080" style="edgeStyle=orthogonalEdgeStyle;rounded=0;orthogonalLoop=1;jettySize=auto;html=1;" parent="1" source="NP-N_gkXr4D6js98mMwR-7" target="NP-N_gkXr4D6js98mMwR-1" edge="1">
          <mxGeometry relative="1" as="geometry" />
        </mxCell>
        <mxCell id="JROARpgO5LGKM70FcoCZ-1" value="Port 9093 (Listener for out of Docker)" style="edgeStyle=orthogonalEdgeStyle;rounded=0;orthogonalLoop=1;jettySize=auto;html=1;entryX=0.939;entryY=0.055;entryDx=0;entryDy=0;entryPerimeter=0;" parent="1" target="NP-N_gkXr4D6js98mMwR-5" edge="1">
          <mxGeometry x="0.1816" y="18" relative="1" as="geometry">
            <mxPoint x="150" y="-20" as="sourcePoint" />
            <Array as="points">
              <mxPoint x="150" y="-19" />
              <mxPoint x="640" y="-19" />
              <mxPoint x="640" y="356" />
            </Array>
            <mxPoint as="offset" />
          </mxGeometry>
        </mxCell>
        <mxCell id="NP-N_gkXr4D6js98mMwR-7" value="REST Client (Open API 3.0)" style="shape=umlActor;verticalLabelPosition=bottom;labelBackgroundColor=#ffffff;verticalAlign=top;html=1;outlineConnect=0;" parent="1" vertex="1">
          <mxGeometry x="125" y="-50" width="30" height="60" as="geometry" />
        </mxCell>
        <mxCell id="NP-N_gkXr4D6js98mMwR-9" value="Cloud Event" style="rounded=0;whiteSpace=wrap;html=1;" parent="1" vertex="1">
          <mxGeometry x="160" y="240" width="80" height="30" as="geometry" />
        </mxCell>
        <mxCell id="P3gw6pkLzeGMDMekv40V-8" style="edgeStyle=orthogonalEdgeStyle;rounded=0;orthogonalLoop=1;jettySize=auto;html=1;exitX=0.25;exitY=1;exitDx=0;exitDy=0;entryX=1;entryY=0.3;entryDx=0;entryDy=0;" parent="1" source="P3gw6pkLzeGMDMekv40V-1" target="NP-N_gkXr4D6js98mMwR-2" edge="1">
          <mxGeometry relative="1" as="geometry">
            <Array as="points">
              <mxPoint x="420" y="330" />
              <mxPoint x="220" y="330" />
              <mxPoint x="220" y="383" />
            </Array>
          </mxGeometry>
        </mxCell>
        <mxCell id="P3gw6pkLzeGMDMekv40V-9" value="port 27017" style="edgeLabel;html=1;align=center;verticalAlign=middle;resizable=0;points=[];labelBackgroundColor=default;" parent="P3gw6pkLzeGMDMekv40V-8" vertex="1" connectable="0">
          <mxGeometry x="-0.7045" relative="1" as="geometry">
            <mxPoint x="5" as="offset" />
          </mxGeometry>
        </mxCell>
        <mxCell id="P3gw6pkLzeGMDMekv40V-10" style="edgeStyle=orthogonalEdgeStyle;rounded=0;orthogonalLoop=1;jettySize=auto;html=1;exitX=0;exitY=0.5;exitDx=0;exitDy=0;entryX=1;entryY=0.5;entryDx=0;entryDy=0;" parent="1" source="P3gw6pkLzeGMDMekv40V-1" target="NP-N_gkXr4D6js98mMwR-1" edge="1">
          <mxGeometry relative="1" as="geometry" />
        </mxCell>
        <mxCell id="P3gw6pkLzeGMDMekv40V-11" value="port 8080" style="edgeLabel;html=1;align=center;verticalAlign=middle;resizable=0;points=[];" parent="P3gw6pkLzeGMDMekv40V-10" vertex="1" connectable="0">
          <mxGeometry x="0.0092" relative="1" as="geometry">
            <mxPoint y="-10" as="offset" />
          </mxGeometry>
        </mxCell>
        <mxCell id="P3gw6pkLzeGMDMekv40V-1" value="Order Service" style="rounded=0;whiteSpace=wrap;html=1;" parent="1" vertex="1">
          <mxGeometry x="370" y="110" width="200" height="160" as="geometry" />
        </mxCell>
        <mxCell id="P3gw6pkLzeGMDMekv40V-2" value="" style="outlineConnect=0;dashed=0;verticalLabelPosition=bottom;verticalAlign=top;align=center;html=1;shape=mxgraph.aws3.android;fillColor=#8CC64F;gradientColor=none;" parent="1" vertex="1">
          <mxGeometry x="372" y="111" width="33.5" height="40" as="geometry" />
        </mxCell>
        <mxCell id="P3gw6pkLzeGMDMekv40V-4" value="" style="outlineConnect=0;dashed=0;verticalLabelPosition=bottom;verticalAlign=top;align=center;html=1;shape=mxgraph.aws3.android;fillColor=#EE472A;gradientColor=none;" parent="1" vertex="1">
          <mxGeometry x="41" y="111" width="38" height="40" as="geometry" />
        </mxCell>
        <mxCell id="P3gw6pkLzeGMDMekv40V-5" value="Port 8081" style="edgeStyle=orthogonalEdgeStyle;rounded=0;orthogonalLoop=1;jettySize=auto;html=1;entryX=0.5;entryY=0;entryDx=0;entryDy=0;" parent="1" target="P3gw6pkLzeGMDMekv40V-1" edge="1">
          <mxGeometry x="0.3678" y="-40" relative="1" as="geometry">
            <mxPoint x="150" y="20" as="sourcePoint" />
            <mxPoint x="150" y="120" as="targetPoint" />
            <mxPoint as="offset" />
          </mxGeometry>
        </mxCell>
        <mxCell id="P3gw6pkLzeGMDMekv40V-6" value="Cloud Event" style="rounded=0;whiteSpace=wrap;html=1;" parent="1" vertex="1">
          <mxGeometry x="490" y="240" width="80" height="30" as="geometry" />
        </mxCell>
        <mxCell id="P3gw6pkLzeGMDMekv40V-7" value="port 9092" style="edgeStyle=orthogonalEdgeStyle;rounded=0;orthogonalLoop=1;jettySize=auto;html=1;entryX=0.674;entryY=-0.025;entryDx=0;entryDy=0;entryPerimeter=0;" parent="1" source="P3gw6pkLzeGMDMekv40V-6" target="NP-N_gkXr4D6js98mMwR-5" edge="1">
          <mxGeometry relative="1" as="geometry">
            <mxPoint x="200" y="280" as="sourcePoint" />
            <mxPoint x="358" y="360" as="targetPoint" />
          </mxGeometry>
        </mxCell>
        <mxCell id="P3gw6pkLzeGMDMekv40V-13" value="GET person/:id" style="text;strokeColor=none;fillColor=none;align=left;verticalAlign=middle;spacingLeft=4;spacingRight=4;overflow=hidden;points=[[0,0.5],[1,0.5]];portConstraint=eastwest;rotatable=0;whiteSpace=wrap;html=1;" parent="1" vertex="1">
          <mxGeometry x="260" y="200" width="94" height="18" as="geometry" />
        </mxCell>
        <mxCell id="P3gw6pkLzeGMDMekv40V-14" value="/docs - openapi spec" style="text;html=1;align=center;verticalAlign=middle;resizable=0;points=[];autosize=1;strokeColor=none;fillColor=none;" parent="1" vertex="1">
          <mxGeometry x="465" y="50" width="130" height="30" as="geometry" />
        </mxCell>
      </root>
    </mxGraphModel>
  </diagram>
  <diagram id="ni5Q_OmJi7TH-G8R2E6y" name="Interactions-1">
    <mxGraphModel dx="1036" dy="606" grid="1" gridSize="10" guides="1" tooltips="1" connect="1" arrows="1" fold="1" page="1" pageScale="1" pageWidth="850" pageHeight="1100" math="0" shadow="0">
      <root>
        <mxCell id="v0MWP99bqKwrjfjMmXKz-0" />
        <mxCell id="v0MWP99bqKwrjfjMmXKz-1" parent="v0MWP99bqKwrjfjMmXKz-0" />
        <mxCell id="v0MWP99bqKwrjfjMmXKz-2" value="Order Service" style="shape=umlLifeline;perimeter=lifelinePerimeter;whiteSpace=wrap;html=1;container=1;collapsible=0;recursiveResize=0;outlineConnect=0;" parent="v0MWP99bqKwrjfjMmXKz-1" vertex="1">
          <mxGeometry x="180" y="60" width="100" height="310" as="geometry" />
        </mxCell>
        <mxCell id="0eTvIA4_t9a6uZhp-ybZ-2" value="" style="html=1;points=[];perimeter=orthogonalPerimeter;" parent="v0MWP99bqKwrjfjMmXKz-2" vertex="1">
          <mxGeometry x="45" y="100" width="10" height="150" as="geometry" />
        </mxCell>
        <mxCell id="0eTvIA4_t9a6uZhp-ybZ-3" value="POST Order" style="html=1;verticalAlign=bottom;endArrow=block;entryX=0;entryY=0;" parent="v0MWP99bqKwrjfjMmXKz-2" target="0eTvIA4_t9a6uZhp-ybZ-2" edge="1">
          <mxGeometry relative="1" as="geometry">
            <mxPoint x="-25" y="100" as="sourcePoint" />
          </mxGeometry>
        </mxCell>
        <mxCell id="0eTvIA4_t9a6uZhp-ybZ-4" value="Status" style="html=1;verticalAlign=bottom;endArrow=open;endSize=8;dashed=1;" parent="v0MWP99bqKwrjfjMmXKz-2" edge="1">
          <mxGeometry relative="1" as="geometry">
            <mxPoint x="-25" y="245" as="targetPoint" />
            <mxPoint x="49.5" y="245" as="sourcePoint" />
          </mxGeometry>
        </mxCell>
        <mxCell id="0eTvIA4_t9a6uZhp-ybZ-0" value="Contact Service" style="shape=umlLifeline;perimeter=lifelinePerimeter;whiteSpace=wrap;html=1;container=1;collapsible=0;recursiveResize=0;outlineConnect=0;" parent="v0MWP99bqKwrjfjMmXKz-1" vertex="1">
          <mxGeometry x="360" y="60" width="100" height="310" as="geometry" />
        </mxCell>
        <mxCell id="0eTvIA4_t9a6uZhp-ybZ-8" value="" style="html=1;points=[];perimeter=orthogonalPerimeter;" parent="0eTvIA4_t9a6uZhp-ybZ-0" vertex="1">
          <mxGeometry x="45" y="115" width="10" height="55" as="geometry" />
        </mxCell>
        <mxCell id="yRrg85397X06NRB6u-V_-2" value="" style="verticalLabelPosition=bottom;html=1;verticalAlign=top;strokeWidth=2;shape=mxgraph.lean_mapping.physical_pull;pointerEvents=1;" parent="0eTvIA4_t9a6uZhp-ybZ-0" vertex="1">
          <mxGeometry x="10" y="132.5" width="20" height="20" as="geometry" />
        </mxCell>
        <mxCell id="kul-2sdf62SysFe9gi9t-1" value="save order with persons" style="html=1;align=left;spacingLeft=2;endArrow=block;rounded=0;edgeStyle=orthogonalEdgeStyle;curved=0;rounded=0;" parent="0eTvIA4_t9a6uZhp-ybZ-0" edge="1">
          <mxGeometry relative="1" as="geometry">
            <mxPoint x="-125" y="180" as="sourcePoint" />
            <Array as="points">
              <mxPoint x="-103" y="214" />
            </Array>
            <mxPoint x="-125" y="214" as="targetPoint" />
          </mxGeometry>
        </mxCell>
        <mxCell id="0eTvIA4_t9a6uZhp-ybZ-9" value="/person/id" style="html=1;verticalAlign=bottom;endArrow=block;entryX=0;entryY=0;" parent="v0MWP99bqKwrjfjMmXKz-1" source="v0MWP99bqKwrjfjMmXKz-2" target="0eTvIA4_t9a6uZhp-ybZ-8" edge="1">
          <mxGeometry relative="1" as="geometry">
            <mxPoint x="335" y="175" as="sourcePoint" />
          </mxGeometry>
        </mxCell>
        <mxCell id="r1l646EkYVL8DbpIuHvO-0" value="Kafka" style="shape=umlLifeline;perimeter=lifelinePerimeter;whiteSpace=wrap;html=1;container=1;collapsible=0;recursiveResize=0;outlineConnect=0;" parent="v0MWP99bqKwrjfjMmXKz-1" vertex="1">
          <mxGeometry x="510" y="60" width="100" height="300" as="geometry" />
        </mxCell>
        <mxCell id="r1l646EkYVL8DbpIuHvO-2" value="dispatch order created event" style="html=1;verticalAlign=bottom;endArrow=block;" parent="v0MWP99bqKwrjfjMmXKz-1" target="r1l646EkYVL8DbpIuHvO-0" edge="1">
          <mxGeometry relative="1" as="geometry">
            <mxPoint x="235.5" y="303" as="sourcePoint" />
            <mxPoint x="565.5" y="303" as="targetPoint" />
          </mxGeometry>
        </mxCell>
        <mxCell id="0eTvIA4_t9a6uZhp-ybZ-10" value="person" style="html=1;verticalAlign=bottom;endArrow=open;endSize=8;exitX=0;exitY=0.95;dashed=1;" parent="v0MWP99bqKwrjfjMmXKz-1" source="0eTvIA4_t9a6uZhp-ybZ-8" target="0eTvIA4_t9a6uZhp-ybZ-2" edge="1">
          <mxGeometry relative="1" as="geometry">
            <mxPoint x="335" y="251" as="targetPoint" />
          </mxGeometry>
        </mxCell>
      </root>
    </mxGraphModel>
  </diagram>
  <diagram name="Interactions-2" id="Ni7D81_kBAN0IBUMCYxW">
    <mxGraphModel dx="1036" dy="606" grid="1" gridSize="10" guides="1" tooltips="1" connect="1" arrows="1" fold="1" page="1" pageScale="1" pageWidth="850" pageHeight="1100" math="0" shadow="0">
      <root>
        <mxCell id="aC9V_nt8UgBJcs76mvsp-0" />
        <mxCell id="aC9V_nt8UgBJcs76mvsp-1" parent="aC9V_nt8UgBJcs76mvsp-0" />
        <mxCell id="aC9V_nt8UgBJcs76mvsp-2" value="Order Service" style="shape=umlLifeline;perimeter=lifelinePerimeter;whiteSpace=wrap;html=1;container=1;collapsible=0;recursiveResize=0;outlineConnect=0;" parent="aC9V_nt8UgBJcs76mvsp-1" vertex="1">
          <mxGeometry x="205" y="80" width="100" height="310" as="geometry" />
        </mxCell>
        <mxCell id="aC9V_nt8UgBJcs76mvsp-3" value="" style="html=1;points=[];perimeter=orthogonalPerimeter;" parent="aC9V_nt8UgBJcs76mvsp-2" vertex="1">
          <mxGeometry x="45" y="90" width="10" height="180" as="geometry" />
        </mxCell>
        <mxCell id="YL7-XrxkDpV3NV4vxH_O-3" value="update person&lt;br&gt;in orders" style="edgeStyle=orthogonalEdgeStyle;html=1;align=left;spacingLeft=2;endArrow=block;rounded=0;" parent="aC9V_nt8UgBJcs76mvsp-2" edge="1">
          <mxGeometry x="-0.0435" y="9" relative="1" as="geometry">
            <mxPoint x="55" y="217" as="sourcePoint" />
            <Array as="points">
              <mxPoint x="86" y="217" />
              <mxPoint x="86" y="247" />
            </Array>
            <mxPoint x="55" y="247" as="targetPoint" />
            <mxPoint as="offset" />
          </mxGeometry>
        </mxCell>
        <mxCell id="aC9V_nt8UgBJcs76mvsp-8" value="person data" style="html=1;verticalAlign=bottom;endArrow=open;dashed=1;endSize=8;exitX=0;exitY=0.95;" parent="aC9V_nt8UgBJcs76mvsp-1" source="aC9V_nt8UgBJcs76mvsp-7" target="aC9V_nt8UgBJcs76mvsp-3" edge="1">
          <mxGeometry relative="1" as="geometry">
            <mxPoint x="360" y="311" as="targetPoint" />
          </mxGeometry>
        </mxCell>
        <mxCell id="aC9V_nt8UgBJcs76mvsp-9" value="/person/id" style="html=1;verticalAlign=bottom;endArrow=block;entryX=0;entryY=0;exitX=1.067;exitY=0.36;exitDx=0;exitDy=0;exitPerimeter=0;" parent="aC9V_nt8UgBJcs76mvsp-1" source="aC9V_nt8UgBJcs76mvsp-3" target="aC9V_nt8UgBJcs76mvsp-7" edge="1">
          <mxGeometry relative="1" as="geometry">
            <mxPoint x="270" y="235" as="sourcePoint" />
          </mxGeometry>
        </mxCell>
        <mxCell id="aC9V_nt8UgBJcs76mvsp-10" value="Kafka" style="shape=umlLifeline;perimeter=lifelinePerimeter;whiteSpace=wrap;html=1;container=1;collapsible=0;recursiveResize=0;outlineConnect=0;" parent="aC9V_nt8UgBJcs76mvsp-1" vertex="1">
          <mxGeometry x="40" y="80" width="100" height="300" as="geometry" />
        </mxCell>
        <mxCell id="aC9V_nt8UgBJcs76mvsp-14" value="" style="html=1;points=[];perimeter=orthogonalPerimeter;" parent="aC9V_nt8UgBJcs76mvsp-10" vertex="1">
          <mxGeometry x="45" y="75" width="10" height="25" as="geometry" />
        </mxCell>
        <mxCell id="aC9V_nt8UgBJcs76mvsp-15" value="dispatch person event" style="html=1;verticalAlign=bottom;endArrow=block;entryX=0;entryY=0.023;entryDx=0;entryDy=0;entryPerimeter=0;" parent="aC9V_nt8UgBJcs76mvsp-1" source="aC9V_nt8UgBJcs76mvsp-14" target="aC9V_nt8UgBJcs76mvsp-3" edge="1">
          <mxGeometry width="80" relative="1" as="geometry">
            <mxPoint x="-130" y="210" as="sourcePoint" />
            <mxPoint x="-50" y="210" as="targetPoint" />
          </mxGeometry>
        </mxCell>
        <mxCell id="aC9V_nt8UgBJcs76mvsp-17" value="check relevance" style="edgeStyle=orthogonalEdgeStyle;html=1;align=left;spacingLeft=2;endArrow=block;rounded=0;entryX=0.879;entryY=0.27;entryDx=0;entryDy=0;entryPerimeter=0;" parent="aC9V_nt8UgBJcs76mvsp-1" target="aC9V_nt8UgBJcs76mvsp-3" edge="1">
          <mxGeometry x="-0.6163" y="15" relative="1" as="geometry">
            <mxPoint x="259" y="175" as="sourcePoint" />
            <Array as="points">
              <mxPoint x="290" y="175" />
              <mxPoint x="290" y="205" />
            </Array>
            <mxPoint x="264" y="190" as="targetPoint" />
            <mxPoint as="offset" />
          </mxGeometry>
        </mxCell>
        <mxCell id="aC9V_nt8UgBJcs76mvsp-6" value="Contact Service" style="shape=umlLifeline;perimeter=lifelinePerimeter;whiteSpace=wrap;html=1;container=1;collapsible=0;recursiveResize=0;outlineConnect=0;" parent="aC9V_nt8UgBJcs76mvsp-1" vertex="1">
          <mxGeometry x="380" y="80" width="100" height="310" as="geometry" />
        </mxCell>
        <mxCell id="aC9V_nt8UgBJcs76mvsp-7" value="" style="html=1;points=[];perimeter=orthogonalPerimeter;" parent="aC9V_nt8UgBJcs76mvsp-6" vertex="1">
          <mxGeometry x="45" y="155" width="10" height="25" as="geometry" />
        </mxCell>
        <mxCell id="YL7-XrxkDpV3NV4vxH_O-2" value="soldTo, shipTo, billTo" style="shape=umlFrame;whiteSpace=wrap;html=1;pointerEvents=0;width=60;height=50;align=left;" parent="aC9V_nt8UgBJcs76mvsp-1" vertex="1">
          <mxGeometry x="180" y="280" width="200" height="80" as="geometry" />
        </mxCell>
      </root>
    </mxGraphModel>
  </diagram>
  <diagram id="3hEOmVmZXxJ7YOg0ERBi" name="Architecture">
    <mxGraphModel dx="1219" dy="713" grid="1" gridSize="10" guides="1" tooltips="1" connect="1" arrows="1" fold="1" page="1" pageScale="1" pageWidth="850" pageHeight="1100" math="0" shadow="0">
      <root>
        <mxCell id="0" />
        <mxCell id="1" parent="0" />
        <mxCell id="NkkBuTqsFRbNgEgCSV1B-3" value="" style="rounded=0;whiteSpace=wrap;html=1;" vertex="1" parent="1">
          <mxGeometry x="240" y="160" width="360" height="230" as="geometry" />
        </mxCell>
        <mxCell id="NkkBuTqsFRbNgEgCSV1B-4" value="Order Service" style="text;html=1;align=center;verticalAlign=middle;resizable=0;points=[];autosize=1;strokeColor=none;fillColor=none;fontSize=19;" vertex="1" parent="1">
          <mxGeometry x="315" y="123" width="140" height="40" as="geometry" />
        </mxCell>
        <mxCell id="TtUoy8fC9YQUMye-a3Wl-32" style="edgeStyle=orthogonalEdgeStyle;rounded=0;orthogonalLoop=1;jettySize=auto;html=1;exitX=0.5;exitY=0;exitDx=0;exitDy=0;entryX=0.5;entryY=1;entryDx=0;entryDy=0;startArrow=classic;startFill=1;" edge="1" parent="1" source="TtUoy8fC9YQUMye-a3Wl-1" target="TtUoy8fC9YQUMye-a3Wl-18">
          <mxGeometry relative="1" as="geometry" />
        </mxCell>
        <mxCell id="TtUoy8fC9YQUMye-a3Wl-1" value="Mongo DB&lt;br&gt;order-service/orders&amp;nbsp;" style="shape=cylinder;whiteSpace=wrap;html=1;boundedLbl=1;backgroundOutline=1;" vertex="1" parent="1">
          <mxGeometry x="350" y="440" width="120" height="70" as="geometry" />
        </mxCell>
        <mxCell id="TtUoy8fC9YQUMye-a3Wl-6" style="edgeStyle=orthogonalEdgeStyle;rounded=0;orthogonalLoop=1;jettySize=auto;html=1;exitX=1;exitY=1;exitDx=0;exitDy=0;exitPerimeter=0;entryX=0;entryY=0.5;entryDx=0;entryDy=0;" edge="1" parent="1" source="TtUoy8fC9YQUMye-a3Wl-2" target="TtUoy8fC9YQUMye-a3Wl-5">
          <mxGeometry relative="1" as="geometry">
            <Array as="points">
              <mxPoint x="100" y="215" />
              <mxPoint x="100" y="215" />
            </Array>
          </mxGeometry>
        </mxCell>
        <mxCell id="TtUoy8fC9YQUMye-a3Wl-2" value="Client" style="shape=umlActor;verticalLabelPosition=bottom;verticalAlign=top;html=1;outlineConnect=0;" vertex="1" parent="1">
          <mxGeometry x="60" y="155" width="30" height="60" as="geometry" />
        </mxCell>
        <mxCell id="TtUoy8fC9YQUMye-a3Wl-5" value="HTTP handler&lt;br&gt;&lt;div style=&quot;text-align: left;&quot;&gt;&lt;span style=&quot;background-color: initial;&quot;&gt;&amp;nbsp; /api&lt;br&gt;&amp;nbsp; &amp;nbsp; /http&lt;/span&gt;&lt;/div&gt;" style="rounded=0;whiteSpace=wrap;html=1;" vertex="1" parent="1">
          <mxGeometry x="240" y="160" width="90" height="110" as="geometry" />
        </mxCell>
        <mxCell id="TtUoy8fC9YQUMye-a3Wl-7" value="Kafka consumer&lt;br&gt;&lt;div style=&quot;text-align: left;&quot;&gt;&lt;span style=&quot;background-color: initial;&quot;&gt;&amp;nbsp; /api&lt;br&gt;&amp;nbsp; &amp;nbsp; /queue&lt;/span&gt;&lt;/div&gt;" style="rounded=0;whiteSpace=wrap;html=1;" vertex="1" parent="1">
          <mxGeometry x="240" y="270" width="90" height="120" as="geometry" />
        </mxCell>
        <mxCell id="TtUoy8fC9YQUMye-a3Wl-10" value="" style="endArrow=classic;html=1;rounded=0;entryX=0;entryY=0.5;entryDx=0;entryDy=0;" edge="1" parent="1" target="TtUoy8fC9YQUMye-a3Wl-7">
          <mxGeometry width="50" height="50" relative="1" as="geometry">
            <mxPoint x="160" y="530" as="sourcePoint" />
            <mxPoint x="450" y="290" as="targetPoint" />
            <Array as="points">
              <mxPoint x="160" y="330" />
            </Array>
          </mxGeometry>
        </mxCell>
        <mxCell id="TtUoy8fC9YQUMye-a3Wl-11" value="order crud requests" style="text;html=1;align=center;verticalAlign=middle;resizable=0;points=[];autosize=1;strokeColor=none;fillColor=none;" vertex="1" parent="1">
          <mxGeometry x="92" y="186" width="130" height="30" as="geometry" />
        </mxCell>
        <mxCell id="TtUoy8fC9YQUMye-a3Wl-14" value="person.changed" style="text;html=1;align=center;verticalAlign=middle;resizable=0;points=[];autosize=1;strokeColor=none;fillColor=none;" vertex="1" parent="1">
          <mxGeometry x="55" y="348" width="110" height="30" as="geometry" />
        </mxCell>
        <mxCell id="_fzI_xnXSycjw6NF5Hm9-3" value="Kafka" style="text;html=1;align=center;verticalAlign=middle;resizable=0;points=[];autosize=1;strokeColor=none;fillColor=none;" vertex="1" parent="1">
          <mxGeometry x="90" y="520" width="50" height="30" as="geometry" />
        </mxCell>
        <mxCell id="TtUoy8fC9YQUMye-a3Wl-17" value="" style="group" vertex="1" connectable="0" parent="1">
          <mxGeometry x="140" y="530" width="560" height="10" as="geometry" />
        </mxCell>
        <mxCell id="_fzI_xnXSycjw6NF5Hm9-1" value="" style="endArrow=none;html=1;rounded=0;" edge="1" parent="TtUoy8fC9YQUMye-a3Wl-17">
          <mxGeometry width="50" height="50" relative="1" as="geometry">
            <mxPoint as="sourcePoint" />
            <mxPoint x="560" as="targetPoint" />
          </mxGeometry>
        </mxCell>
        <mxCell id="_fzI_xnXSycjw6NF5Hm9-2" value="" style="endArrow=none;html=1;rounded=0;" edge="1" parent="TtUoy8fC9YQUMye-a3Wl-17">
          <mxGeometry width="50" height="50" relative="1" as="geometry">
            <mxPoint y="10" as="sourcePoint" />
            <mxPoint x="560" y="10" as="targetPoint" />
          </mxGeometry>
        </mxCell>
        <mxCell id="TtUoy8fC9YQUMye-a3Wl-18" value="DAL&lt;br&gt;/models" style="rounded=0;whiteSpace=wrap;html=1;" vertex="1" parent="1">
          <mxGeometry x="330" y="330" width="160" height="60" as="geometry" />
        </mxCell>
        <mxCell id="TtUoy8fC9YQUMye-a3Wl-38" style="edgeStyle=orthogonalEdgeStyle;rounded=0;orthogonalLoop=1;jettySize=auto;html=1;exitX=1;exitY=0.5;exitDx=0;exitDy=0;" edge="1" parent="1" source="TtUoy8fC9YQUMye-a3Wl-19">
          <mxGeometry relative="1" as="geometry">
            <mxPoint x="640" y="530" as="targetPoint" />
          </mxGeometry>
        </mxCell>
        <mxCell id="TtUoy8fC9YQUMye-a3Wl-19" value="&lt;div style=&quot;&quot;&gt;&lt;div style=&quot;text-align: left;&quot;&gt;&lt;span style=&quot;background-color: initial;&quot;&gt;Kafka producer&lt;br&gt;&lt;div style=&quot;text-align: left;&quot;&gt;&lt;span style=&quot;background-color: initial; text-align: center;&quot;&gt;&amp;nbsp; /services&lt;br&gt;&lt;/span&gt;&lt;span style=&quot;background-color: initial; text-align: center;&quot;&gt;&amp;nbsp; &amp;nbsp; &amp;nbsp;/kafkaSvc&lt;/span&gt;&lt;/div&gt;&lt;/span&gt;&lt;/div&gt;&lt;/div&gt;" style="rounded=0;whiteSpace=wrap;html=1;" vertex="1" parent="1">
          <mxGeometry x="490" y="270" width="110" height="120" as="geometry" />
        </mxCell>
        <mxCell id="TtUoy8fC9YQUMye-a3Wl-36" style="edgeStyle=orthogonalEdgeStyle;rounded=0;orthogonalLoop=1;jettySize=auto;html=1;exitX=1;exitY=0.25;exitDx=0;exitDy=0;entryX=0;entryY=0.5;entryDx=0;entryDy=0;" edge="1" parent="1" source="TtUoy8fC9YQUMye-a3Wl-21" target="TtUoy8fC9YQUMye-a3Wl-35">
          <mxGeometry relative="1" as="geometry" />
        </mxCell>
        <mxCell id="TtUoy8fC9YQUMye-a3Wl-37" value="person crud &lt;br&gt;requests" style="edgeLabel;html=1;align=center;verticalAlign=middle;resizable=0;points=[];" vertex="1" connectable="0" parent="TtUoy8fC9YQUMye-a3Wl-36">
          <mxGeometry x="-0.2082" y="1" relative="1" as="geometry">
            <mxPoint x="13" y="-16" as="offset" />
          </mxGeometry>
        </mxCell>
        <mxCell id="TtUoy8fC9YQUMye-a3Wl-21" value="&amp;nbsp; &amp;nbsp; &amp;nbsp;HTTP client&lt;div&gt;&amp;nbsp; &amp;nbsp; &amp;nbsp;/services&lt;br&gt;&amp;nbsp; &amp;nbsp; &amp;nbsp; &amp;nbsp;/contactSvc&lt;/div&gt;" style="rounded=0;whiteSpace=wrap;html=1;align=left;" vertex="1" parent="1">
          <mxGeometry x="490" y="160" width="110" height="110" as="geometry" />
        </mxCell>
        <mxCell id="TtUoy8fC9YQUMye-a3Wl-22" value="Business Logic&lt;div&gt;&lt;br&gt;/domain&lt;/div&gt;" style="rounded=0;whiteSpace=wrap;html=1;" vertex="1" parent="1">
          <mxGeometry x="330" y="160" width="160" height="170" as="geometry" />
        </mxCell>
        <mxCell id="TtUoy8fC9YQUMye-a3Wl-26" value="" style="shape=singleArrow;direction=south;whiteSpace=wrap;html=1;rotation=-90;arrowWidth=0.32266438802083336;arrowSize=0.5391283118206541;" vertex="1" parent="1">
          <mxGeometry x="486" y="220" width="15" height="14.25" as="geometry" />
        </mxCell>
        <mxCell id="TtUoy8fC9YQUMye-a3Wl-27" value="" style="shape=singleArrow;direction=south;whiteSpace=wrap;html=1;rotation=-90;arrowWidth=0.32266438802083336;arrowSize=0.5391283118206541;" vertex="1" parent="1">
          <mxGeometry x="326" y="216" width="15" height="14.25" as="geometry" />
        </mxCell>
        <mxCell id="TtUoy8fC9YQUMye-a3Wl-28" value="" style="shape=singleArrow;direction=south;whiteSpace=wrap;html=1;rotation=-90;arrowWidth=0.32266438802083336;arrowSize=0.5391283118206541;" vertex="1" parent="1">
          <mxGeometry x="326" y="295.63" width="15" height="14.25" as="geometry" />
        </mxCell>
        <mxCell id="TtUoy8fC9YQUMye-a3Wl-29" value="" style="shape=singleArrow;direction=south;whiteSpace=wrap;html=1;rotation=-90;arrowWidth=0.32266438802083336;arrowSize=0.5391283118206541;" vertex="1" parent="1">
          <mxGeometry x="486" y="295.63" width="15" height="14.25" as="geometry" />
        </mxCell>
        <mxCell id="TtUoy8fC9YQUMye-a3Wl-30" value="" style="shape=singleArrow;direction=west;whiteSpace=wrap;html=1;rotation=-90;arrowWidth=0.32266438802083336;arrowSize=0.5391283118206541;" vertex="1" parent="1">
          <mxGeometry x="402.875" y="325.495" width="14.25" height="15" as="geometry" />
        </mxCell>
        <mxCell id="TtUoy8fC9YQUMye-a3Wl-35" value="contact-service" style="rounded=0;whiteSpace=wrap;html=1;" vertex="1" parent="1">
          <mxGeometry x="707" y="176" width="120" height="44.37" as="geometry" />
        </mxCell>
        <mxCell id="TtUoy8fC9YQUMye-a3Wl-39" value="order.*" style="text;html=1;align=center;verticalAlign=middle;resizable=0;points=[];autosize=1;strokeColor=none;fillColor=none;" vertex="1" parent="1">
          <mxGeometry x="630" y="378" width="60" height="30" as="geometry" />
        </mxCell>
      </root>
    </mxGraphModel>
  </diagram>
</mxfile>
